# xmcd CD database file
#
# Track frame offsets:
#	150
#	23485
#	45222
#	70620
#	98262
#	126107
#	153112
#	175420
#	196857
#
# Disc length: 3069 seconds
#
# Revision: 0
# Processed by: cddbd v1.5.1PL2 Copyright (c) Steve Scherf et al.
# Submitted via: CDex 1.51
#
DISCID=590bfb09
DTITLE=A.P.J. - e
DYEAR=2006
DGENRE=Jazz
TTITLE0=Majestic Scarecrow
TTITLE1=妖精写真
TTITLE2=You Think You Know Me
TTITLE3=Noir
TTITLE4=パリの恋人
TTITLE5=Treefrog
TTITLE6=Green
TTITLE7=クラゲ注意報
TTITLE8=God be with you〜膚の下
EXTD=YEAR: 2006
EXTT0=
EXTT1=
EXTT2=
EXTT3=
EXTT4=
EXTT5=
EXTT6=
EXTT7=
EXTT8=
PLAYORDER=
